<svg width="2184" height="1049" viewBox="0 0 2184 1049" fill="none" xmlns="http://www.w3.org/2000/svg">
<path d="M1001.6 1006.98C1002.66 1007.96 1008.53 1017.47 1010.11 1019.66C1033.1 1051.47 1084.83 1056.1 1116.23 1037.72C1123.59 1033.93 1124.89 1033.23 1130.89 1027.61C1140.8 1020.66 1148.44 1006.8 1154.12 996.302C1173.23 961.03 1192.5 925.79 1211.63 890.534L1336.55 660.296C1356.33 624.247 1377.44 584.198 1398.36 549.125C1344.6 548.481 1290.82 548.369 1237.05 548.761C1232.91 556.318 1224.96 572.019 1220.6 578.613C1217.94 579.68 1214.71 581.174 1213.33 583.77C1191.99 624.051 1168.22 662.921 1146.05 702.729C1137.44 718.166 1131.75 733.163 1121.92 747.966L1123 744.878C1114.35 758.428 1110.31 769.411 1102.75 783.139C1098.18 791.448 1091.4 799.861 1087.08 809.223C1084.13 815.614 1080.26 822.678 1077.31 829.125C1075.83 832.382 1071.5 831.825 1067.25 832.31C1037.6 780.279 1008.38 727.992 979.622 675.458C974.103 665.372 949.707 622.965 946.239 614.366C945.551 598.864 949.349 599.105 934.912 594.912L932.579 592.083C923.208 570.196 905.501 552.945 883.376 544.143C848.225 530.359 806.979 541.708 784.404 572.225C780.901 576.152 771.151 590.052 770.516 590.601C764.037 592.871 764.689 593.102 761.101 598.538C742.865 626.17 725.281 659.799 713.391 690.886L711.899 690.243L710.463 684.892C707.982 687.478 706.871 699.81 704.69 704.569C698.569 717.933 690.341 730.034 682.503 742.411C682.438 745.165 682.385 747.476 682.342 749.345C679.894 751.605 672.663 758.217 671.456 760.483C666.989 768.864 665.567 788.026 656.108 792.47C653.261 793.808 653.1 794.15 651.473 796.583L653.981 796.7C655.876 795.516 654.784 796.031 657.324 795.311C651.35 804.662 640.713 816.749 637.735 827.162C636.588 831.18 638.101 833.436 634.031 837.415C630.952 832.628 629.655 829.234 624.477 826.777C619.455 819.924 615.648 811.67 611.439 804.252C591.03 768.282 572.17 730.839 551.382 695.133C554.399 670.416 542.753 670.03 530.472 651.485C522.631 639.646 517.729 616.746 506.803 607.745L505.568 594.294L504.136 593.176L500.172 595.002C495.068 586.369 492.175 583.65 492.217 573.707C488.799 572.168 489.321 573.522 488.032 570.315C478.966 547.754 462.275 528.917 451.343 507.269C450.399 505.407 456.802 502.147 448.021 500.985C430.934 468.673 321.714 263.113 305.256 251.595C296.726 238.413 290.49 223.593 282.094 211.25C279.315 205.737 277.032 200.769 273.522 195.661C271.213 191.253 255.856 162.579 252.806 159.066L246.059 146.444C222.706 102.18 192.135 48.7646 166.803 5.27077L0 5.38266C3.24244 11.1902 11.3521 24.9045 13.4246 30.3762C14.3384 36.8555 12.8075 51.0735 20.2719 50.9755C23.0134 50.9335 27.7 66.7749 33.8728 68.4542C42.2959 75.8431 137.334 249.37 150.431 272.797L425.283 761.531C424.967 763.031 423.894 767.841 424.63 769.307C438.532 796.817 454.376 823.907 469.375 850.966C474.085 859.463 476.4 868.757 484.665 873.629C488.684 891.752 498.183 902.848 506.967 918.665L536.744 971.45C542.988 982.694 557.672 1012.96 568.933 1017.02C570.55 1018 577.068 1025.43 579.125 1027.18C608.888 1052.44 644.738 1053.57 678.481 1038.63L679.855 1038.67C684.917 1038.88 686.984 1040.32 690.784 1035.78C691.708 1034.68 708.938 1034.28 699.133 1028.25C699.065 1028.09 698.998 1027.92 698.929 1027.76C704.84 1024.78 707.377 1016.32 709.009 1010.41C756.922 919.949 810.142 820.54 855.406 729.078L945.612 901.674C951.208 912.301 980.662 964.841 982.932 972.196C982.962 984.224 985.452 980.403 988.485 991.028C991.087 1000.14 989.295 1001.9 1001.6 1006.98Z" fill="#180A4F"/>
<path d="M772.221 605.173C769.743 630.883 772.844 652.603 789.987 673.495C804.388 690.963 825.258 701.843 847.823 703.651C869.199 705.188 890.324 698.259 906.637 684.361C922.594 670.72 933.168 648.672 936.143 627.698C937.981 614.75 932.508 600.124 932.582 592.084C923.21 570.197 905.503 552.947 883.378 544.144C848.228 530.36 806.981 541.709 784.406 572.226C780.903 576.153 771.154 590.054 770.518 590.602C766.804 598.002 762.112 605.714 758.797 612.92C770.875 606.25 764.284 605.3 766.547 616.185C767.143 616.798 766.822 616.686 767.381 616.771C769.227 608.648 766.434 612.097 772.221 605.173Z" fill="#1E5AF2"/>
<path d="M758.797 612.92C770.875 606.251 764.284 605.3 766.547 616.185C767.143 616.798 766.822 616.686 767.381 616.771C769.227 608.648 766.434 612.097 772.221 605.173C771.751 605.96 784.451 571.324 784.406 572.227C780.903 576.154 771.154 590.054 770.518 590.602C766.804 598.003 762.112 605.715 758.797 612.92Z" fill="#151145"/>
<path d="M551.384 695.135C554.401 670.418 542.755 670.032 530.474 651.487C522.633 639.648 517.731 616.748 506.806 607.747L505.57 594.296L504.138 593.178L500.174 595.004C495.07 586.371 492.178 583.652 492.22 573.709C488.801 572.17 489.323 573.524 488.034 570.317C478.968 547.755 462.278 528.919 451.345 507.27C450.401 505.409 456.805 502.149 448.023 500.987C430.936 468.675 321.716 263.115 305.258 251.597C313.762 269.286 328.489 293.524 338.477 311.366L394.861 412.81L551.384 695.135Z" fill="#FFFFFF"/>
<path d="M1067.25 832.312L1073.73 844.957C1088.91 821.437 1105.24 790.152 1118.13 764.992C1150.1 702.565 1189.6 641.033 1220.6 578.615C1217.94 579.681 1214.71 581.176 1213.33 583.772C1191.99 624.053 1168.22 662.923 1146.05 702.73C1137.44 718.167 1131.75 733.165 1121.93 747.968L1123 744.879C1114.35 758.43 1110.31 769.412 1102.75 783.141C1098.18 791.449 1091.4 799.862 1087.08 809.224C1084.13 815.616 1080.26 822.68 1077.31 829.127C1075.83 832.383 1071.5 831.826 1067.25 832.312Z" fill="#FFFFFF"/>
<path d="M425.285 761.532C424.969 763.032 423.896 767.842 424.632 769.309C438.534 796.819 454.378 823.908 469.377 850.967C474.087 859.465 476.402 868.758 484.667 873.631C488.686 891.753 498.185 902.849 506.969 918.667L536.746 971.451C542.99 982.696 557.674 1012.96 568.935 1017.02C548.514 984.007 527.875 945.62 509.002 911.549L425.285 761.532Z" fill="#FFFFFF"/>
<path d="M633.949 844.86C646.702 824.454 660.889 795.63 672.317 773.921C691.448 737.412 710.862 701.051 730.555 664.843C735.284 656.081 754.603 618.19 758.794 612.92C762.109 605.714 766.801 598.002 770.515 590.602C764.036 592.872 764.688 593.103 761.1 598.54C742.864 626.171 725.281 659.8 713.39 690.887L711.898 690.245L710.462 684.893C707.981 687.479 706.87 699.811 704.69 704.57C698.569 717.935 690.34 730.036 682.502 742.412C682.437 745.166 682.384 747.478 682.341 749.346C679.893 751.606 672.663 758.218 671.455 760.484C666.988 768.865 665.566 788.027 656.108 792.472C653.26 793.81 653.099 794.151 651.473 796.585L653.98 796.701C655.875 795.517 654.784 796.032 657.324 795.313C651.349 804.664 640.713 816.75 637.735 827.163C636.587 831.181 638.1 833.437 634.03 837.417C630.952 832.629 629.654 829.236 624.477 826.778C627.629 833.328 630.067 838.664 633.949 844.86Z" fill="#FFFFFF"/>
<path d="M678.48 1038.63L679.855 1038.67C684.916 1038.89 686.983 1040.32 690.784 1035.79C691.708 1034.68 708.937 1034.28 699.133 1028.25C699.064 1028.09 698.997 1027.92 698.929 1027.76C704.84 1024.78 707.377 1016.33 709.009 1010.41C696.897 1025.19 695.16 1027.64 678.48 1038.63Z" fill="#FFFFFF"/>
<path d="M13.4258 30.3781C14.3396 36.8573 12.8086 51.0753 20.2731 50.9774C23.0146 50.9354 27.7012 66.7768 33.874 68.4561C32.5306 61.7808 17.7822 36.6754 13.4258 30.3781Z" fill="#FFFFFF"/>
<path d="M982.934 972.196C982.964 984.224 985.454 980.404 988.486 991.028C991.089 1000.14 989.297 1001.9 1001.6 1006.98C997.002 996.746 988.863 981.621 982.934 972.196Z" fill="#FFFFFF"/>
<path d="M934.914 594.914C938.266 601.575 941.945 608.264 946.241 614.367C945.552 598.866 949.35 599.107 934.914 594.914Z" fill="#FFFFFF"/>
<path d="M929.292 119.382C984.879 106.886 1023.87 126.799 1044.88 179.683C1057.73 154.382 1068.97 130.06 1098.58 120.712C1150.2 104.409 1207.45 129.304 1222.37 183.21C1231.15 214.92 1227.93 257.505 1227.94 291.006L1228.03 418.437L1152.57 418.521L1152.78 294.085C1152.81 271.275 1154.12 245.036 1150.76 222.701C1145.47 187.59 1104.36 177.976 1075.48 192.376C1067.01 198.897 1064.39 202.41 1059.53 211.996C1052.32 232.707 1054.76 267.874 1054.76 290.601L1054.84 419.417C1029.79 418.115 1001.71 418.591 976.411 418.507C976.493 392.436 978.69 233.127 972.854 215.9C965.558 216.152 963.978 214.221 961.566 206.3C962.172 205.572 962.178 205.642 962.377 204.886C961.307 203.683 950.343 203.473 949.597 195.329C949.515 194.433 938.232 192.096 933.192 186.358C866.37 181.432 878.09 247.932 878.114 293.595L878.216 418.605L801.097 418.591C801.589 319.946 801.574 221.288 801.051 122.629C826.614 123.245 852.183 123.609 877.753 123.72L877.711 174.435C888.921 151.625 895.282 138.68 917.468 124.756L929.292 119.382Z" fill="#180A4F"/>
<path d="M933.191 186.358C953.06 190.053 964.405 196.686 972.854 215.9C965.557 216.152 963.977 214.221 961.566 206.3C962.172 205.572 962.178 205.642 962.376 204.887C961.307 203.683 950.343 203.473 949.597 195.329C949.514 194.433 938.232 192.096 933.191 186.358Z" fill="#FFFFFF"/>
<path d="M1929.69 29.0508L2006.65 29.1767C2006.63 61.811 2005.78 98.4476 2006.97 130.774C2009.04 144.027 2007.09 156.271 2009.68 170.783C2054.41 90.7228 2154.4 100.421 2177.65 186.653C2180.34 196.757 2181.94 207.126 2182.43 217.566C2185.86 280.05 2179.75 345.822 2183.52 408.516C2183.69 411.301 2182.52 414.995 2181.15 417.388C2177.56 419.487 2175.75 418.983 2171.57 418.801C2164.72 421.292 2117.48 421.138 2104.44 422.342C2101.95 417.99 2104.47 298.956 2102.86 281.449C2100.31 253.755 2115.48 223.905 2084.03 203.306C2078.45 185.645 2074.6 196.421 2060.87 186.317C1994.36 183.63 2005.81 252.803 2005.92 299.082L2006.2 418.508C1980.53 418.774 1954.87 418.844 1929.2 418.732L1929.69 29.0508Z" fill="#180A4F"/>
<path d="M2060.87 186.316C2074.7 188.178 2081.9 189.437 2092.81 199.107C2098.54 206.244 2101.03 210.554 2104.57 219.133L2107.11 231.853C2109.14 286.836 2108.17 362.671 2107.44 418.647C2127.96 418.647 2151.29 418.101 2171.56 418.801C2164.72 421.292 2117.48 421.138 2104.43 422.342C2101.94 417.989 2104.46 298.955 2102.85 281.449C2100.31 253.754 2115.48 223.905 2084.03 203.305C2078.45 185.645 2074.6 196.42 2060.87 186.316Z" fill="#FFFFFF"/>
<path d="M2006.97 130.774C2009.04 144.027 2007.09 156.272 2009.68 170.784C2009.39 171.791 2009.11 173.499 2007.9 173.848C2005.58 172.547 2006.67 135.546 2006.97 130.774Z" fill="#FFFFFF"/>
<path d="M439.678 90.905C517.17 40.6564 600.968 27.7067 660.267 110.899C634.115 124.064 606.867 137.347 581.146 151.162C572.324 138.551 562.949 129.4 547.029 127.185C518.864 123.262 472.239 147.712 468.966 178.368C466.815 196.749 482.186 206.954 498.898 206.515C565.085 204.808 653.675 144.794 711.232 204.097C760.42 254.776 752.13 326.029 699.763 370.517C657.07 406.766 608.202 430.222 552.241 429.274C548.354 431.838 534.859 439.992 534.173 436.647C531.813 425.082 519.64 435.053 515.461 428.899C509.901 420.707 502.426 434.55 493.77 422.396C486.513 412.212 489.076 416.1 485.502 420.033C480.644 420.096 471.121 403.102 463.396 403.191C460.652 403.229 457.756 392.251 456.71 389.73L453.886 383.091C450.57 378.739 447.607 376.083 447.437 370.787C456.43 363.888 514.876 334.78 528.994 327.506C547.61 345.624 572.102 355.816 596.386 347.215C679.755 317.679 677.916 236.986 569.453 276.122C559.403 282.443 551.494 284.833 540.354 287.727C535.872 288.874 530.294 290.219 525.905 291.396C512.156 295.052 501.395 294.4 487.514 295.162C484.316 295.397 463.03 292.693 462.787 292.741C444.28 296.119 450.585 292.87 435.456 286.413L435.327 285.686L435.731 285.342C436.29 285.151 436.849 284.959 437.408 284.768C436.849 283.371 435.521 282.255 433.923 282.284C423.984 282.448 419.446 270.883 415.247 263.732C391.496 229.225 384.307 223.576 385.401 176.693C384.014 173.806 383.848 173.252 382.879 169.859C380.091 160.065 380.366 161.86 383.319 152.806C383.917 150.967 382.468 144.704 386.87 143.133C391.106 141.609 390.532 136.85 392.424 135.643C394.524 134.367 396.244 132.552 397.425 130.394C397.9 129.53 414.232 103.997 414.834 103.706C422.096 100.255 432.209 93.9789 439.678 90.905Z" fill="#1E5AF2"/>
<path d="M415.246 263.731C451.975 294.399 489.68 295.788 534.922 284.599C540.955 283.175 546.969 281.683 552.973 280.139C558.419 278.611 563.89 277.186 569.452 276.121C559.402 282.442 551.493 284.832 540.353 287.726C535.872 288.873 530.293 290.218 525.904 291.395C512.155 295.051 501.394 294.399 487.513 295.161C484.315 295.396 463.029 292.692 462.786 292.74C444.28 296.118 450.584 292.869 435.455 286.412L435.326 285.685L435.73 285.341C436.289 285.15 436.848 284.958 437.408 284.767C436.848 283.37 435.52 282.254 433.922 282.283C423.983 282.447 419.445 270.882 415.246 263.731Z" fill="#FFFFFF"/>
<path d="M453.885 383.093C462.353 391.937 486.147 413.467 498.072 415.805C511.877 424.241 530.877 427.909 546.844 428.319C549.079 428.813 550 428.978 552.24 429.276C548.354 431.84 534.859 439.994 534.172 436.649C531.812 425.084 519.639 435.055 515.461 428.901C509.901 420.709 502.426 434.552 493.769 422.398C486.513 412.214 489.076 416.102 485.502 420.035C480.644 420.098 471.121 403.104 463.395 403.193C460.652 403.231 457.756 392.253 456.71 389.732L453.885 383.093Z" fill="#FFFFFF"/>
<path d="M385.401 176.692C384.014 173.804 383.848 173.251 382.879 169.858C380.091 160.063 380.366 161.858 383.319 152.804C383.917 150.966 382.468 144.703 386.87 143.131C391.106 141.608 390.532 136.849 392.424 135.642C394.524 134.366 396.244 132.55 397.425 130.393C397.9 129.528 414.232 103.996 414.834 103.705C422.096 100.253 432.209 93.9775 439.678 90.9036C405.413 123.624 396.845 128.523 385.401 176.692Z" fill="#FFFFFF"/>
<path d="M498.074 415.803C510.335 414.559 520.862 421.838 523.394 420.049C524.179 417.515 543.809 425.912 546.846 428.317C530.88 427.907 511.879 424.239 498.074 415.803Z" fill="#1E5AF2"/>
<path d="M1659.47 156.859C1733.1 77.2468 1872.41 116.318 1882.41 231.924C1858.92 229.391 1830.33 229.447 1806.7 229.363C1803.1 215.411 1795.49 198.758 1781.26 192.628C1699.96 157.573 1681.14 258.737 1699.89 314.993C1718.27 370.13 1790.27 369.081 1806.47 310.977C1814.66 310.795 1841.6 309.633 1848.32 310.431C1860.46 309.102 1871 308.892 1883.16 308.612C1881.82 314.391 1879.93 323.838 1878.1 329.169C1866.38 394.438 1790.19 433.51 1729.37 422.692C1719.25 420.887 1708.05 417.458 1698.15 414.548C1694.68 414.716 1689.33 415.499 1686.45 413.4C1680.88 409.356 1664.53 405.801 1660.07 401.505C1665.9 401.925 1664.04 402.96 1667.34 400.372C1665.33 394.564 1663.51 399.476 1657 397.895C1648 386.461 1622.91 338.391 1620.79 324.621C1614.54 284.22 1613.08 229.629 1630.04 191.663C1636.43 177.361 1646 173.443 1647.95 157.363L1659.47 156.859Z" fill="#180A4F"/>
<path d="M1698.15 414.548C1694.68 414.715 1689.33 415.499 1686.45 413.4C1680.88 409.356 1664.53 405.801 1660.07 401.505C1665.9 401.925 1664.04 402.96 1667.34 400.371C1665.33 394.564 1663.51 399.476 1657 397.894C1648 386.461 1622.91 338.391 1620.79 324.621C1614.54 284.22 1613.08 229.629 1630.04 191.663C1636.43 177.361 1646 173.442 1647.95 157.363L1659.47 156.859C1594.99 228.369 1605.43 369.36 1698.15 414.548Z" fill="#FFFFFF"/>
<path d="M1457.04 49.8877C1480.73 50.2655 1506.06 50.2376 1529.6 51.3852C1529.6 75.3431 1529.74 99.3011 1530 123.259C1550.2 123.763 1571.37 122.503 1590.56 123.231C1589.89 145.244 1588.91 167.802 1588.51 189.773C1568.87 188.36 1549.22 187.114 1529.54 186.023L1529.47 285.983C1529.44 296.954 1528.63 330.218 1530.83 339.706C1532.06 339.301 1533.31 338.881 1534.54 338.475C1540.15 336.768 1542.54 338.783 1540.63 344.003C1540.42 344.534 1544.91 347.333 1545.69 346.829C1548.03 347.277 1549.83 349.642 1551.39 351.14C1566.19 351.853 1578.12 350.888 1592.87 349.32C1591.4 372.873 1590.33 396.439 1589.69 420.019C1550.24 423.265 1485.11 428.863 1465.76 383.718C1450.27 355.744 1458.65 284.5 1456.38 250.256C1455.68 239.564 1455.33 196.728 1457.11 187.758C1445.17 188.64 1431.98 188.808 1419.65 189.605C1415.67 183.98 1416.81 134.105 1418.97 125.932L1456.87 122.825L1457.04 49.8877Z" fill="#180A4F"/>
<path d="M1530.83 339.707C1532.06 339.301 1533.31 338.881 1534.54 338.476C1540.15 336.768 1542.55 338.783 1540.63 344.003C1540.42 344.535 1544.91 347.334 1545.69 346.83C1548.03 347.278 1549.84 349.643 1551.39 351.14C1540.22 349.209 1537.55 348.831 1530.83 339.707Z" fill="#FFFFFF"/>
<path d="M1293.24 123.791C1318.26 124.267 1344.06 124.043 1369.14 124.141L1369.24 418.885C1344.54 418.228 1318.13 418.661 1293.31 418.619C1293.81 320.353 1293.78 222.072 1293.24 123.791Z" fill="#180A4F"/>
<path d="M1285.79 58.8023C1281.86 54.1982 1284.58 49.4264 1283.75 44.9623C1281.89 34.8445 1287.08 31.4578 1288.2 26.5039L1287.99 26.2659C1289.24 23.0893 1293.18 18.5413 1293.24 18.1354C1292.33 11.7261 1304.38 13.9932 1304.87 12.3839C1308.55 0.278927 1312.93 6.31038 1325.31 7.98968C1349.86 5.21884 1372.05 22.7534 1375.02 47.2852C1377.99 71.8169 1360.62 94.1515 1336.12 97.3142C1311.61 100.477 1289.14 83.2781 1285.79 58.8023Z" fill="#180A4F"/>
<path d="M1285.79 58.8023C1281.86 54.1982 1284.58 49.4264 1283.75 44.9623C1281.89 34.8445 1287.08 31.4578 1288.2 26.5039L1287.99 26.2659C1289.24 23.0893 1293.18 18.5413 1293.24 18.1354C1292.33 11.7261 1304.38 13.9932 1304.87 12.3839C1308.55 0.278927 1312.93 6.31038 1325.31 7.98968C1313.26 9.34711 1302.29 15.5045 1294.85 25.0765C1287.4 34.6345 1284.14 46.7953 1285.79 58.8023Z" fill="#FFFFFF"/>
</svg>
