<svg width="1711" height="1084" viewBox="0 0 1711 1084" fill="none" xmlns="http://www.w3.org/2000/svg">
<g filter="url(#filter0_d_2020_269)">
<path d="M1005.6 1001.71C1006.66 1002.69 1012.53 1012.2 1014.11 1014.39C1037.1 1046.2 1088.83 1050.83 1120.23 1032.45C1127.59 1028.66 1128.89 1027.96 1134.89 1022.34C1144.8 1015.39 1152.44 1001.53 1158.12 991.032C1177.23 955.759 1196.5 920.519 1215.63 885.264L1340.55 655.025C1360.33 618.976 1381.44 578.928 1402.36 543.854C1348.6 543.211 1294.82 543.099 1241.05 543.491C1236.91 551.047 1228.96 566.749 1224.6 573.343C1221.94 574.409 1218.71 575.904 1217.33 578.5C1195.99 618.781 1172.22 657.651 1150.05 697.458C1141.44 712.895 1135.75 727.893 1125.92 742.696L1127 739.607C1118.35 753.158 1114.31 764.14 1106.75 777.869C1102.18 786.177 1095.4 794.59 1091.08 803.952C1088.13 810.343 1084.26 817.408 1081.31 823.855C1079.83 827.111 1075.5 826.554 1071.25 827.04C1041.6 775.008 1012.38 722.722 983.622 670.188C978.103 660.101 953.707 617.695 950.239 609.095C949.551 593.594 953.349 593.835 938.912 589.642L936.579 586.812C927.208 564.925 909.501 547.675 887.376 538.873C852.225 525.088 810.979 536.438 788.404 566.955C784.901 570.881 775.151 584.782 774.516 585.33C768.037 587.6 768.689 587.831 765.101 593.268C746.865 620.899 729.281 654.529 717.391 685.615L715.899 684.973L714.463 679.621C711.982 682.208 710.871 694.539 708.69 699.299C702.569 712.663 694.341 724.764 686.503 737.14C686.438 739.894 686.385 742.206 686.342 744.074C683.894 746.334 676.663 752.947 675.456 755.212C670.989 763.593 669.567 782.755 660.108 787.2C657.261 788.538 657.1 788.879 655.473 791.313L657.981 791.429C659.876 790.245 658.784 790.76 661.324 790.041C655.35 799.392 644.713 811.478 641.735 821.891C640.588 825.909 642.101 828.165 638.031 832.145C634.952 827.358 633.655 823.964 628.477 821.507C623.455 814.654 619.648 806.4 615.439 798.982C595.03 763.011 576.17 725.568 555.382 689.862C558.399 665.146 546.753 664.76 534.472 646.215C526.631 634.376 521.729 611.476 510.803 602.474L509.568 589.023L508.136 587.905L504.172 589.731C499.068 581.098 496.175 578.379 496.217 568.437C492.799 566.897 493.321 568.252 492.032 565.044C482.966 542.483 466.275 523.647 455.343 501.998C454.399 500.137 460.802 496.876 452.021 495.715C434.934 463.402 325.714 257.842 309.256 246.325C300.726 233.142 294.49 218.323 286.094 205.98C283.315 200.466 281.032 195.498 277.522 190.39C275.213 185.982 259.856 157.308 256.806 153.796L250.059 141.173C226.706 96.9097 196.135 43.494 170.803 0.000257552L4 0.112149C7.24244 5.91972 15.3521 19.634 17.4246 25.1057C18.3384 31.585 16.8075 45.803 24.2719 45.705C27.0134 45.663 31.7 61.5044 37.8728 63.1837C46.2959 70.5726 141.334 244.1 154.431 267.526L429.283 756.26C428.967 757.76 427.894 762.57 428.63 764.037C442.532 791.547 458.376 818.636 473.375 845.695C478.085 854.193 480.4 863.486 488.665 868.359C492.684 886.481 502.183 897.577 510.967 913.395L540.744 966.179C546.988 977.424 561.672 1007.68 572.933 1011.75C574.55 1012.73 581.068 1020.16 583.125 1021.91C612.888 1047.17 648.738 1048.3 682.481 1033.36L683.855 1033.4C688.917 1033.61 690.984 1035.05 694.784 1030.51C695.708 1029.41 712.938 1029.01 703.133 1022.98C703.065 1022.82 702.998 1022.65 702.929 1022.49C708.84 1019.51 711.377 1011.05 713.009 1005.14C760.922 914.678 814.142 815.269 859.406 723.808L949.612 896.403C955.208 907.03 984.662 959.57 986.932 966.925C986.962 978.953 989.452 975.133 992.485 985.757C995.087 994.873 993.295 996.632 1005.6 1001.71Z" fill="#180A4F"/>
<path d="M776.221 599.903C773.743 625.613 776.844 647.334 793.987 668.225C808.388 685.693 829.258 696.573 851.823 698.381C873.199 699.918 894.324 692.99 910.637 679.092C926.594 665.45 937.168 643.403 940.143 622.428C941.981 609.481 936.508 594.854 936.582 586.815C927.21 564.928 909.503 547.677 887.378 538.875C852.228 525.091 810.981 536.44 788.406 566.957C784.903 570.884 775.154 584.784 774.518 585.333C770.804 592.733 766.112 600.445 762.797 607.65C774.875 600.981 768.284 600.031 770.547 610.915C771.143 611.528 770.822 611.416 771.381 611.502C773.227 603.378 770.434 606.828 776.221 599.903Z" fill="#1E5AF2"/>
<path d="M762.797 607.651C774.875 600.981 768.284 600.031 770.547 610.916C771.143 611.529 770.822 611.417 771.381 611.502C773.227 603.378 770.434 606.828 776.221 599.904C775.751 600.69 788.451 566.055 788.406 566.957C784.903 570.884 775.154 584.784 774.518 585.333C770.804 592.733 766.112 600.445 762.797 607.651Z" fill="#151145"/>
<path d="M555.384 689.865C558.401 665.149 546.755 664.763 534.474 646.218C526.633 634.378 521.731 611.478 510.806 602.477L509.57 589.026L508.138 587.908L504.174 589.734C499.07 581.101 496.178 578.382 496.22 568.439C492.801 566.9 493.323 568.255 492.034 565.047C482.968 542.486 466.278 523.65 455.345 502.001C454.401 500.14 460.805 496.879 452.023 495.718C434.936 463.405 325.716 257.845 309.258 246.328C317.762 264.016 332.489 288.254 342.477 306.097L398.861 407.54L555.384 689.865Z" fill="#FFFFFF"/>
<path d="M1071.25 827.041L1077.73 839.687C1092.91 816.167 1109.24 784.881 1122.13 759.721C1154.1 697.295 1193.6 635.763 1224.6 573.344C1221.94 574.411 1218.71 575.905 1217.33 578.501C1195.99 618.782 1172.22 657.652 1150.05 697.46C1141.44 712.897 1135.75 727.894 1125.93 742.697L1127 739.609C1118.35 753.159 1114.31 764.142 1106.75 777.87C1102.18 786.179 1095.4 794.592 1091.08 803.954C1088.13 810.345 1084.26 817.409 1081.31 823.856C1079.83 827.113 1075.5 826.556 1071.25 827.041Z" fill="#FFFFFF"/>
<path d="M429.285 756.263C428.969 757.763 427.896 762.573 428.632 764.039C442.534 791.549 458.378 818.639 473.377 845.698C478.087 854.195 480.402 863.489 488.667 868.361C492.686 886.484 502.185 897.58 510.969 913.397L540.746 966.182C546.99 977.426 561.674 1007.69 572.935 1011.75C552.514 978.737 531.875 940.35 513.002 906.28L429.285 756.263Z" fill="#FFFFFF"/>
<path d="M637.949 839.591C650.702 819.185 664.889 790.361 676.317 768.652C695.448 732.142 714.862 695.781 734.555 659.573C739.284 650.811 758.603 612.921 762.794 607.65C766.109 600.445 770.801 592.733 774.515 585.333C768.036 587.602 768.688 587.833 765.1 593.27C746.864 620.902 729.281 654.531 717.39 685.617L715.898 684.975L714.462 679.624C711.981 682.21 710.87 694.542 708.69 699.301C702.569 712.665 694.34 724.766 686.502 737.143C686.437 739.897 686.384 742.208 686.341 744.077C683.893 746.337 676.663 752.949 675.455 755.215C670.988 763.596 669.566 782.758 660.108 787.202C657.26 788.54 657.099 788.882 655.473 791.315L657.98 791.431C659.875 790.247 658.784 790.762 661.324 790.043C655.349 799.394 644.713 811.481 641.735 821.894C640.587 825.912 642.1 828.167 638.03 832.147C634.952 827.36 633.654 823.966 628.477 821.509C631.629 828.058 634.067 833.394 637.949 839.591Z" fill="#FFFFFF"/>
<path d="M682.48 1033.36L683.855 1033.4C688.916 1033.62 690.983 1035.05 694.784 1030.52C695.708 1029.41 712.937 1029.01 703.133 1022.98C703.064 1022.82 702.997 1022.65 702.929 1022.49C708.84 1019.51 711.377 1011.06 713.009 1005.14C700.897 1019.92 699.16 1022.37 682.48 1033.36Z" fill="#FFFFFF"/>
<path d="M17.4258 25.1085C18.3396 31.5878 16.8086 45.8058 24.2731 45.7079C27.0146 45.6659 31.7012 61.5072 37.874 63.1865C36.5306 56.5113 21.7822 31.4059 17.4258 25.1085Z" fill="#FFFFFF"/>
<path d="M986.934 966.926C986.964 978.954 989.454 975.133 992.486 985.757C995.089 994.873 993.297 996.632 1005.6 1001.71C1001 991.475 992.863 976.351 986.934 966.926Z" fill="#FFFFFF"/>
<path d="M938.914 589.644C942.266 596.306 945.945 602.995 950.241 609.098C949.552 593.596 953.35 593.837 938.914 589.644Z" fill="#FFFFFF"/>
<path d="M704.763 73.5003C703.708 72.5193 697.838 63.0074 696.256 60.8187C673.26 29.0115 621.537 24.3766 590.135 42.7607C582.774 46.5461 581.472 47.2514 575.469 52.8701C565.561 59.8196 557.92 73.6751 552.239 84.1763C533.137 119.449 513.867 154.689 494.737 189.944L369.811 420.183C350.037 456.232 328.92 496.28 307.999 531.354C361.764 531.997 415.544 532.109 469.309 531.717C473.452 524.161 481.4 508.459 485.766 501.865C488.425 500.799 491.658 499.304 493.029 496.708C514.37 456.427 538.146 417.557 560.313 377.75C568.919 362.313 574.615 347.315 584.439 332.512L583.362 335.601C592.01 322.05 596.054 311.068 603.611 297.339C608.187 289.031 614.96 280.618 619.284 271.256C622.237 264.865 626.1 257.8 629.052 251.353C630.536 248.097 634.86 248.654 639.114 248.168C668.768 300.2 697.983 352.486 726.741 405.02C732.261 415.107 756.656 457.513 760.124 466.113C760.813 481.614 757.015 481.373 771.451 485.566L773.784 488.396C783.156 510.283 800.863 527.533 822.987 536.335C858.138 550.12 899.384 538.77 921.959 508.253C925.462 504.327 935.212 490.426 935.847 489.878C942.327 487.608 941.674 487.377 945.263 481.94C963.498 454.309 981.082 420.679 992.973 389.593L994.465 390.235L995.9 395.587C998.381 393 999.493 380.669 1001.67 375.909C1007.79 362.545 1016.02 350.444 1023.86 338.068C1023.93 335.314 1023.98 333.002 1024.02 331.134C1026.47 328.874 1033.7 322.261 1034.91 319.996C1039.37 311.615 1040.8 292.453 1050.25 288.008C1053.1 286.67 1053.26 286.329 1054.89 283.895L1052.38 283.779C1050.49 284.963 1051.58 284.448 1049.04 285.167C1055.01 275.816 1065.65 263.73 1068.63 253.317C1069.78 249.299 1068.26 247.043 1072.33 243.063C1075.41 247.85 1076.71 251.244 1081.89 253.701C1086.91 260.554 1090.71 268.808 1094.92 276.226C1115.33 312.197 1134.19 349.64 1154.98 385.346C1151.96 410.062 1163.61 410.448 1175.89 428.993C1183.73 440.832 1188.63 463.732 1199.56 472.734L1200.8 486.185L1202.23 487.303L1206.19 485.477C1211.3 494.11 1214.19 496.829 1214.15 506.771C1217.56 508.311 1217.04 506.956 1218.33 510.164C1227.4 532.725 1244.09 551.561 1255.02 573.21C1255.96 575.071 1249.56 578.332 1258.34 579.493C1275.43 611.806 1384.65 817.366 1401.11 828.883C1409.64 842.066 1415.87 856.885 1424.27 869.228C1427.05 874.742 1429.33 879.71 1432.84 884.818C1435.15 889.226 1450.51 917.9 1453.56 921.412L1460.3 934.035C1483.66 978.298 1514.23 1031.71 1539.56 1075.21L1706.36 1075.1C1703.12 1069.29 1695.01 1055.57 1692.94 1050.1C1692.02 1043.62 1693.56 1029.41 1686.09 1029.5C1683.35 1029.54 1678.66 1013.7 1672.49 1012.02C1664.07 1004.64 1569.03 831.108 1555.93 807.682L1281.08 318.948C1281.4 317.448 1282.47 312.638 1281.73 311.171C1267.83 283.661 1251.99 256.572 1236.99 229.513C1232.28 221.015 1229.96 211.722 1221.7 206.849C1217.68 188.727 1208.18 177.631 1199.4 161.813L1169.62 109.029C1163.38 97.7843 1148.69 67.5234 1137.43 63.4595C1135.81 62.4757 1129.3 55.0448 1127.24 53.2997C1097.48 28.0361 1061.63 26.9039 1027.88 41.8511L1026.51 41.8063C1021.45 41.5936 1019.38 40.1606 1015.58 44.6947C1014.66 45.7961 997.426 46.2018 1007.23 52.2305C1007.3 52.3928 1007.37 52.5566 1007.43 52.7204C1001.52 55.6997 998.986 64.155 997.354 70.0703C949.441 160.53 896.221 259.939 850.957 351.4L760.751 178.805C755.155 168.178 725.701 115.638 723.432 108.283C723.401 96.2547 720.911 100.075 717.879 89.4508C715.276 80.335 717.068 78.5759 704.763 73.5003Z" fill="#180A4F"/>
<path d="M934.142 475.305C936.62 449.595 933.519 427.874 916.376 406.983C901.975 389.515 881.105 378.635 858.54 376.827C837.164 375.29 816.04 382.218 799.727 396.116C783.769 409.758 773.195 431.805 770.22 452.78C768.383 465.727 773.856 480.354 773.782 488.393C783.153 510.28 800.86 527.531 822.985 536.333C858.135 550.117 899.382 538.768 921.957 508.251C925.46 504.324 935.21 490.424 935.845 489.875C939.559 482.475 944.251 474.763 947.566 467.558C935.488 474.227 942.079 475.177 939.817 464.293C939.22 463.68 939.541 463.792 938.982 463.706C937.137 471.83 939.93 468.38 934.142 475.305Z" fill="#1E5AF2"/>
<path d="M947.566 467.557C935.488 474.227 942.079 475.177 939.817 464.292C939.22 463.679 939.541 463.791 938.982 463.706C937.137 471.83 939.93 468.38 934.142 475.304C934.612 474.518 921.912 509.153 921.957 508.251C925.46 504.324 935.21 490.424 935.845 489.875C939.559 482.475 944.251 474.763 947.566 467.557Z" fill="#180A4F"/>
<path d="M1154.98 385.343C1151.96 410.059 1163.61 410.445 1175.89 428.991C1183.73 440.83 1188.63 463.73 1199.56 472.731L1200.79 486.182L1202.22 487.3L1206.19 485.474C1211.29 494.107 1214.19 496.826 1214.14 506.769C1217.56 508.308 1217.04 506.953 1218.33 510.161C1227.39 532.722 1244.09 551.558 1255.02 573.207C1255.96 575.068 1249.56 578.329 1258.34 579.49C1275.43 611.803 1384.65 817.363 1401.11 828.88C1392.6 811.192 1377.87 786.954 1367.89 769.111L1311.5 667.668L1154.98 385.343Z" fill="#FFFFFF"/>
<path d="M639.113 248.167L632.634 235.521C617.45 259.041 601.119 290.327 588.231 315.487C556.268 377.913 516.763 439.445 485.766 501.864C488.424 500.797 491.657 499.303 493.028 496.707C514.369 456.426 538.145 417.556 560.312 377.748C568.919 362.311 574.614 347.314 584.438 332.511L583.361 335.599C592.009 322.049 596.053 311.066 603.61 297.338C608.186 289.029 614.959 280.616 619.284 271.254C622.236 264.863 626.099 257.799 629.052 251.352C630.535 248.095 634.859 248.652 639.113 248.167Z" fill="#FFFFFF"/>
<path d="M1281.08 318.945C1281.39 317.445 1282.47 312.635 1281.73 311.169C1267.83 283.659 1251.99 256.569 1236.99 229.51C1232.28 221.013 1229.96 211.719 1221.7 206.847C1217.68 188.724 1208.18 177.628 1199.39 161.811L1169.62 109.026C1163.37 97.7818 1148.69 67.5209 1137.43 63.457C1157.85 96.4706 1178.49 134.858 1197.36 168.928L1281.08 318.945Z" fill="#FFFFFF"/>
<path d="M1072.41 235.617C1059.66 256.023 1045.47 284.847 1034.05 306.556C1014.91 343.066 995.501 379.427 975.808 415.635C971.08 424.397 951.761 462.287 947.57 467.558C944.254 474.763 939.562 482.475 935.848 489.875C942.327 487.606 941.675 487.375 945.263 481.938C963.499 454.306 981.083 420.677 992.974 389.591L994.465 390.233L995.901 395.584C998.382 392.998 999.493 380.666 1001.67 375.907C1007.79 362.543 1016.02 350.442 1023.86 338.066C1023.93 335.311 1023.98 333 1024.02 331.131C1026.47 328.871 1033.7 322.259 1034.91 319.993C1039.38 311.612 1040.8 292.45 1050.26 288.006C1053.1 286.668 1053.26 286.326 1054.89 283.893L1052.38 283.777C1050.49 284.961 1051.58 284.446 1049.04 285.165C1055.01 275.814 1065.65 263.727 1068.63 253.314C1069.78 249.296 1068.26 247.041 1072.33 243.061C1075.41 247.848 1076.71 251.242 1081.89 253.699C1078.73 247.15 1076.3 241.814 1072.41 235.617Z" fill="#FFFFFF"/>
<path d="M1027.88 41.8483L1026.51 41.8035C1021.45 41.5908 1019.38 40.1579 1015.58 44.692C1014.66 45.7933 997.426 46.1991 1007.23 52.2277C1007.3 52.3901 1007.37 52.5539 1007.43 52.7176C1001.52 55.6969 998.986 64.1522 997.355 70.0675C1009.47 55.2883 1011.2 52.8379 1027.88 41.8483Z" fill="#FFFFFF"/>
<path d="M1692.94 1050.1C1692.02 1043.62 1693.55 1029.4 1686.09 1029.5C1683.35 1029.54 1678.66 1013.7 1672.49 1012.02C1673.83 1018.7 1688.58 1043.8 1692.94 1050.1Z" fill="#FFFFFF"/>
<path d="M723.43 108.282C723.399 96.2544 720.909 100.075 717.877 89.4505C715.274 80.3348 717.067 78.5757 704.761 73.5C709.361 83.7325 717.5 98.8574 723.43 108.282Z" fill="#FFFFFF"/>
<path d="M771.449 485.564C768.098 478.902 764.419 472.213 760.122 466.11C760.811 481.612 757.013 481.371 771.449 485.564Z" fill="#FFFFFF"/>
<rect x="441.363" y="565.207" width="118" height="168" transform="rotate(180 441.363 565.207)" fill="#180A4F"/>
<rect x="1263.98" y="506.133" width="139.752" height="147.59" transform="rotate(29.3434 1263.98 506.133)" fill="#180A4F"/>
</g>
<defs>
<filter id="filter0_d_2020_269" x="0" y="0" width="1710.36" height="1083.21" filterUnits="userSpaceOnUse" color-interpolation-filters="sRGB">
<feFlood flood-opacity="0" result="BackgroundImageFix"/>
<feColorMatrix in="SourceAlpha" type="matrix" values="0 0 0 0 0 0 0 0 0 0 0 0 0 0 0 0 0 0 127 0" result="hardAlpha"/>
<feOffset dy="4"/>
<feGaussianBlur stdDeviation="2"/>
<feComposite in2="hardAlpha" operator="out"/>
<feColorMatrix type="matrix" values="0 0 0 0 0 0 0 0 0 0 0 0 0 0 0 0 0 0 0.25 0"/>
<feBlend mode="normal" in2="BackgroundImageFix" result="effect1_dropShadow_2020_269"/>
<feBlend mode="normal" in="SourceGraphic" in2="effect1_dropShadow_2020_269" result="shape"/>
</filter>
</defs>
</svg>
